<svg width="63" height="57" viewBox="0 0 63 57" fill="none" xmlns="http://www.w3.org/2000/svg">
<path d="M49.6112 32.5748C49.6143 32.6997 49.7177 32.7981 49.8456 32.7989C50.5498 32.8059 51.3707 32.9959 51.6012 33.7162C51.7133 34.0667 51.531 34.9957 51.9651 34.8298C54.8961 33.7108 52.2185 29.808 55.4431 28.8325C55.8891 28.6976 56.4014 28.831 56.7732 28.6573C56.9879 28.5573 57.0637 28.1765 57.2863 28.0052C58.9819 26.704 61.7605 27.4352 62.6052 29.3878C63.8421 32.2491 61.9539 35.4501 59.9647 37.5043C59.566 37.916 57.9754 39.0536 57.7347 39.4638C57.715 39.4979 57.7063 39.5375 57.7071 39.577C57.7339 40.9774 57.6715 42.3825 57.7 43.783C57.7497 46.2659 58.2723 49.6926 58.0907 52.0817C57.8957 54.6523 55.005 55.993 52.7482 54.7198C50.5277 53.4666 51.4741 50.8775 51.5049 48.9466C51.5381 46.8498 51.5428 44.7275 51.4157 42.6361C51.407 42.4973 51.276 42.3957 51.1371 42.4221C49.7217 42.6904 49.5346 44.3925 48.825 45.5835C47.2052 48.3046 44.687 50.8123 41.8263 52.3159C41.5035 52.4857 41.2943 52.8161 41.2966 53.1759C41.3109 54.8175 39.8915 56.6335 38.237 56.7847C35.0227 57.0786 28.4598 57.0655 25.2344 56.7832C24.0392 56.6785 22.2087 55.7457 21.8424 54.5747C21.6766 54.0443 21.8748 53.2805 21.5874 52.8416C21.4895 52.692 19.7316 51.7979 19.3306 51.504C17.1969 49.9392 15.0908 47.5826 13.8239 45.2827C13.5089 44.7104 12.834 42.8044 12.6327 42.578C12.4638 42.388 12.1717 42.4043 11.9262 42.3337C11.7888 42.2941 11.6475 42.3841 11.6262 42.5229C11.5536 42.9936 11.5655 43.5085 11.5899 43.9675C11.7328 46.5862 12.1235 49.2731 12.1772 51.8886C12.2475 55.2905 6.58526 56.8483 5.25121 52.9804C5.24489 52.9618 5.24095 52.9425 5.23937 52.9231C4.91414 49.1994 5.07833 45.1555 5.19121 41.3698C5.20621 40.8642 5.4375 40.3835 5.40514 39.8717C5.4004 39.8011 5.36409 39.7375 5.30568 39.6964C3.26434 38.282 1.06276 35.7983 0.300219 33.4534C-0.715712 30.3307 0.874887 26.9358 4.64496 27.7213C5.51644 27.9028 5.87955 28.5984 6.27109 28.7092C6.70209 28.8318 7.22781 28.6844 7.69986 28.7845C9.11206 29.0822 9.73962 32.4213 9.47439 33.7767C9.45702 33.8659 9.49649 33.9574 9.57227 34.0094L10.6419 34.7476C10.7966 34.8538 11.0074 34.7468 11.0113 34.5615C11.0326 33.5519 11.5339 33.0315 12.6737 33.1401C12.8056 33.1525 12.9192 33.0517 12.9271 32.9222C13.1671 28.8674 14.3259 24.9577 17.0501 21.8257C17.6847 21.0968 19.0788 19.746 19.895 19.2652C20.5107 18.9023 21.458 18.7325 21.8605 18.4254C22.5236 17.919 23.4685 16.393 24.2958 15.6478C28.5111 11.852 34.8695 11.8443 38.8851 15.9308C39.3721 16.4263 40.2555 18.0795 40.471 18.2486C40.7425 18.4618 41.2524 18.4386 41.5958 18.6216C46.9162 21.4597 49.4549 26.7489 49.6088 32.5725L49.6112 32.5748ZM49.4059 35.2935C49.417 35.1524 49.297 35.0345 49.1533 35.0446C46.6179 35.2245 47.5201 32.9749 47.3543 31.2387C46.9478 26.9738 44.8086 22.8787 40.9659 20.7176C40.4583 20.4322 39.8505 20.3927 39.3563 20.0817C38.5433 19.5707 38.3112 18.6433 37.7547 17.9632C34.5546 14.0558 28.9902 14.0132 25.4514 17.5166C24.5429 18.4169 23.9998 19.8894 22.9341 20.3981C21.0001 21.3209 20.4144 21.2612 18.8427 23.0276C16.0973 26.1146 15.0798 30.2307 15.135 34.2707C15.135 34.311 15.1263 34.3513 15.1058 34.387C14.7743 34.9531 14.1901 35.2229 13.55 35.2175C13.4126 35.2159 13.3037 35.333 13.3155 35.468C13.8697 41.6211 16.1533 46.9615 21.589 50.399C22.0847 50.7123 23.2522 51.0961 23.5435 51.4342C24.2105 52.2073 23.3651 54.36 25.0457 54.5724C26.907 54.8074 29.5452 54.7663 31.4618 54.7554C31.9054 54.7531 32.6435 54.7756 33.0887 54.7655C34.1804 54.7407 37.6347 54.7709 38.3207 54.4685C39.5474 53.9273 39.1835 52.0957 39.5671 51.4792C39.6603 51.3295 41.7261 50.0423 42.2597 49.6608C47.1602 46.1612 48.9513 41.0317 49.4059 35.2943V35.2935ZM60.2852 29.7266C60.0713 29.5754 59.4074 29.4459 59.068 29.4855C59.0064 29.4924 58.9495 29.5242 58.9109 29.5723C58.0315 30.692 57.9683 32.1506 56.212 31.4931C56.0951 31.4489 55.961 31.4993 55.9112 31.6117C55.4723 32.6144 55.8425 33.5581 55.2995 34.5917C54.5622 35.996 52.8982 36.7118 51.5152 37.3693C51.4489 37.4011 51.4015 37.4616 51.3873 37.5322L51.01 39.4273C50.9752 39.6003 51.1418 39.7453 51.3123 39.6918C54.4706 38.6946 58.0591 37.0592 59.8147 34.2211C60.4273 33.2316 61.4227 30.5292 60.2852 29.7251V29.7266ZM5.06333 30.9099C4.67259 30.5152 4.97966 29.9817 3.98741 29.8453C3.07252 29.7196 2.52311 29.8522 2.27998 30.7711C1.56323 33.4782 4.77126 36.7257 6.91048 38.0447C7.44884 38.3766 10.4564 39.8794 11.4778 40.0283C11.6373 40.0516 11.7731 39.9151 11.7446 39.7592L11.3405 37.55C11.3255 37.4686 11.2671 37.4004 11.1873 37.3732C9.75935 36.8893 7.52857 35.7487 7.28307 34.1753C7.13625 33.2363 7.43305 32.1716 7.08888 31.2116C7.07467 31.1713 7.04863 31.134 7.01389 31.1085C6.59394 30.7975 5.68221 31.5357 5.06255 30.9099H5.06333ZM55.4565 40.7836C55.4518 40.6394 55.3152 40.5354 55.1716 40.5657C54.6719 40.6696 53.6899 41.0364 53.7531 41.3768C54.1327 44.8601 53.1476 48.8683 53.5565 52.2694C53.581 52.4733 53.5636 52.6718 53.7507 52.8161C54.3719 53.3185 55.6278 53.1053 55.8157 52.2841C55.8204 52.2647 55.822 52.2446 55.8212 52.2244L55.4565 40.7836ZM9.66858 52.6726C10.233 52.0848 9.7483 50.5595 9.71989 49.8593C9.61174 47.2127 9.5178 44.5732 9.34256 41.9305C9.36782 41.5629 8.284 41.0589 7.74565 40.9294C7.59961 40.8945 7.45831 41.0023 7.45594 41.1504L7.28149 52.0631C7.32728 53.2829 9.01339 53.3542 9.66779 52.6726H9.66858Z" fill="black"/>
<path d="M10.742 28.2112L9.59329 27.0027C9.51232 26.9177 9.47104 26.8042 9.47659 26.6876C9.58535 24.2512 8.85738 20.7576 10.2157 18.6725C10.9476 17.5497 12.6266 16.8045 13.3181 15.4986C13.4864 15.1804 13.2022 14.8105 12.841 14.88C11.5652 15.1241 10.3744 14.965 9.38212 14.0537C9.22573 13.9101 8.98758 13.8923 8.81451 14.0159C7.7428 14.7804 6.75524 15.0924 5.51127 14.8893C5.13657 14.8283 4.86983 15.2299 5.06909 15.5449C5.98679 16.9967 7.98414 17.7134 8.45807 19.5258C8.46601 19.5567 8.47077 19.5891 8.47157 19.6216L8.65336 25.6798C8.66209 25.9694 8.37948 26.1849 8.0929 26.1069L6.9164 25.7895C6.74492 25.7431 6.61711 25.6018 6.59568 25.4304C6.48851 24.567 6.6441 22.2256 6.58695 21.5838C6.33212 18.7103 4.83966 19.0679 3.40516 17.1419C2.80182 16.3326 2.23501 14.9935 2.09688 14.0043C1.71662 11.2775 1.77457 4.37293 2.03893 1.5558C2.21516 -0.323062 4.46893 -0.131548 4.82855 0.815219C4.84204 0.849969 4.8476 0.887037 4.85078 0.924105C5.06353 3.91422 4.6928 7.04797 4.87856 10.0195C4.91032 10.5323 4.99129 11.5756 5.07941 12.0281C5.26993 13.0012 7.28951 13.2869 7.5237 11.8366C8.03812 8.65732 7.10057 4.41772 7.6142 1.11871C7.61658 1.10172 7.62055 1.08473 7.62452 1.06851C8.03415 -0.486778 10.4562 -0.305302 10.5674 1.35965C10.5674 1.37123 10.5681 1.38282 10.5681 1.3944V11.9787C10.5681 12.0119 10.5713 12.0451 10.5793 12.0768C10.846 13.1047 12.9608 13.1379 13.0124 11.8374L13.1085 1.2052C13.1085 1.12875 13.1315 1.05461 13.1704 0.988201C14.0992 -0.567091 16.0736 -0.131548 16.2514 1.73959C16.5062 4.43085 16.5658 12.6459 15.9656 15.0692C15.236 18.0176 13.8873 17.6261 12.3607 19.4679C12.1527 19.7189 11.5105 20.6039 11.5105 20.8471V27.9193C11.5105 28.3108 11.0167 28.4993 10.7428 28.212L10.742 28.2112Z" fill="black"/>
<path d="M56.1088 25.7844L56.5349 18.9054C56.5373 18.87 56.5428 18.8345 56.5539 18.8006C56.9721 17.4504 58.2267 16.969 59.0971 16.0216C61.4241 13.4891 61.1065 8.84223 59.9406 5.85447C58.256 1.53574 54.2444 0.627633 51.9729 5.08115C50.3801 8.2037 50.213 13.3158 52.5946 16.094C53.0888 16.6702 53.6615 16.9313 54.0963 17.3849C56.2767 19.6618 55.3453 23.3435 55.457 26.2257C55.4617 26.3505 55.4158 26.4714 55.3263 26.5616L53.9759 27.9141C53.6805 28.2099 53.1657 27.9988 53.1775 27.586L53.3811 20.5368C53.3827 20.4844 53.3755 20.4312 53.3581 20.3819C52.7578 18.6296 51.0834 17.8633 50.0665 16.1657C47.5589 11.9786 48.4096 3.01614 53.3003 0.691564C61.287 -3.10494 64.8139 9.7126 62.0909 15.2629C61.2894 16.8966 59.0559 18.3239 58.5767 19.3637C58.0358 20.5375 58.454 23.0547 58.3447 24.4503C58.2227 26.0001 57.8505 26.0455 56.6569 26.2565C56.3599 26.3089 56.0906 26.0771 56.1088 25.7844Z" fill="black"/>
<path d="M26.8735 31.4776C26.9497 31.3732 27.0885 31.3193 27.2265 31.3392C28.0361 31.4549 28.6948 31.9428 29.4538 32.1615C32.1449 32.9348 34.2157 32.3702 36.6364 31.4251C36.7936 31.3633 36.979 31.413 37.0728 31.5401C37.1587 31.6566 37.1483 31.81 37.0448 31.9151C34.5944 34.4097 29.4658 34.24 26.8831 31.9115C26.7676 31.8071 26.7499 31.6459 26.8398 31.5231L26.8735 31.4769V31.4776Z" fill="black"/>
<path d="M26.8641 27.6837C25.741 28.7163 23.927 27.3877 24.4357 26.0641C25.3348 23.7238 28.6681 26.0249 26.8641 27.6837Z" fill="black"/>
<path d="M38.4821 27.6837C37.4713 28.7163 35.8387 27.3877 36.2965 26.0641C37.1057 23.7238 40.1057 26.0249 38.4821 27.6837Z" fill="black"/>
</svg>
